<svg width="147" height="147" viewBox="0 0 147 147" fill="none" xmlns="http://www.w3.org/2000/svg">
<path fill-rule="evenodd" clip-rule="evenodd" d="M73.5196 0.947754C113.772 0.94778 146.52 33.6957 146.52 73.9478C146.52 114.2 113.772 146.948 73.5196 146.948C33.2675 146.948 0.519558 114.2 0.519531 73.9478C0.519531 33.6957 33.2675 0.947754 73.5196 0.947754ZM85.3222 108.087C77.5638 106.676 69.4753 106.674 61.7168 108.087C62.4724 113.065 63.3975 117.704 64.4866 121.879H64.4901C68.2078 136.137 72.2698 139.26 73.5213 139.26C74.7729 139.26 78.8331 136.137 82.5526 121.879C83.64 117.704 84.5649 113.067 85.3222 108.087ZM54.2214 109.926C50.0924 111.199 46.1046 112.883 42.2986 114.963C43.3154 116.984 44.4065 118.934 45.5839 120.783C50.1313 127.914 55.5119 133.127 61.3321 136.164C59.7521 132.818 58.3221 128.704 57.0476 123.819V123.821C55.9443 119.589 54.9999 114.922 54.2214 109.926ZM92.8176 109.926C92.0392 114.92 91.0948 119.588 89.9915 123.817C88.7187 128.702 87.2889 132.817 85.7072 136.162C91.5273 133.126 96.908 127.913 101.455 120.781C102.633 118.933 103.722 116.982 104.74 114.961C100.938 112.885 96.9502 111.202 92.8176 109.926ZM35.7476 119.047C33.9611 120.317 32.2347 121.676 30.5807 123.12C34.888 126.885 39.6931 130.095 44.8812 132.637C42.8423 130.322 40.9075 127.749 39.1016 124.915H39.0999C37.9066 123.042 36.7926 121.077 35.7476 119.047ZM111.29 119.047C110.245 121.079 109.131 123.042 107.937 124.915H107.936C106.13 127.749 104.197 130.322 102.156 132.637C107.346 130.095 112.149 126.885 116.457 123.12C114.803 121.674 113.076 120.315 111.29 119.047ZM8.32215 77.7925C9.21538 93.1046 15.4045 107.015 25.0836 117.716C27.4385 115.626 29.9258 113.695 32.5208 111.932C28.4359 101.681 26.065 90.0119 25.6537 77.7925H8.32215ZM121.384 77.7925C120.974 90.0119 118.602 101.681 114.517 111.932C117.111 113.695 119.598 115.626 121.953 117.715C131.631 107.014 137.82 93.1024 138.713 77.7925H121.384ZM33.3486 77.7925C33.7352 88.5714 35.7406 98.8455 39.1865 107.908C43.6508 105.522 48.3341 103.61 53.1869 102.208C52.3095 94.547 51.7906 86.31 51.6705 77.7925H33.3486ZM95.3668 77.7925C95.2485 86.31 94.7296 94.5487 93.8504 102.21C98.7062 103.615 103.391 105.525 107.849 107.908C111.297 98.8448 113.3 88.5693 113.687 77.7925H95.3668ZM59.3583 77.7925C59.4731 85.6957 59.9356 93.336 60.7194 100.45C69.1392 98.9656 77.8962 98.9655 86.3161 100.45C87.0998 93.3357 87.5643 85.6974 87.6773 77.7925H59.3583ZM121.952 30.1809C119.599 32.2674 117.112 34.1988 114.517 35.9658C118.603 46.2169 120.974 57.8854 121.385 70.1047H138.713C137.82 54.7933 131.631 40.8817 121.952 30.1809ZM25.0836 30.1828C15.4063 40.884 9.21712 54.7944 8.32387 70.1047H25.6537C26.0633 57.8854 28.4359 46.2186 32.5208 35.9676C29.9258 34.2023 27.4385 32.2711 25.0836 30.1828ZM39.1865 39.9889C35.7388 49.0519 33.7352 59.3276 33.3486 70.1047H51.6688C51.7889 61.5854 52.3078 53.3451 53.1869 45.6837C48.3412 44.2839 43.6561 42.3739 39.1865 39.9872V39.9889ZM86.3197 47.4437C82.113 48.1886 77.8197 48.5647 73.5177 48.5647C69.2158 48.5647 64.9279 48.1886 60.7213 47.4437C59.9375 54.5578 59.4732 62.1998 59.3602 70.1047H87.6807C87.5677 62.1998 87.1035 54.5595 86.3197 47.4437ZM107.851 39.9872C103.386 42.3703 98.7032 44.2786 93.8504 45.682C94.7296 53.3451 95.2485 61.5855 95.3685 70.1047H113.689C113.302 59.3259 111.298 49.0502 107.851 39.9872ZM73.5177 8.63728C72.266 8.63742 68.2043 11.7605 64.4866 26.0183C63.3975 30.1915 62.4741 34.8272 61.7168 39.8053C69.4806 41.2176 77.5674 41.2158 85.3205 39.8053C84.5632 34.8272 83.6383 30.1897 82.5509 26.0166L82.549 26.0183C78.8313 11.7602 74.7693 8.63728 73.5177 8.63728ZM61.3321 11.7319C55.5119 14.7682 50.1313 19.9811 45.5839 27.1128C44.4065 28.9611 43.3172 30.9101 42.2986 32.9331C46.1081 35.0109 50.0977 36.6949 54.2214 37.9659C54.9999 32.9719 55.9443 28.3061 57.0476 24.0765C58.3204 19.192 59.7504 15.0771 61.3321 11.7319ZM85.7072 11.7319C87.2871 15.0771 88.7169 19.192 89.9915 24.0765C91.0948 28.3061 92.0392 32.9702 92.8176 37.9642C96.9466 36.6897 100.936 35.0073 104.74 32.9331C103.722 30.9119 102.633 28.9611 101.455 27.1128C96.908 19.9811 91.5273 14.7682 85.7072 11.7319ZM44.8812 15.2571C39.693 17.7991 34.888 21.0086 30.5807 24.7757C32.2365 26.2215 33.963 27.5789 35.7495 28.8481C36.7945 26.8181 37.9065 24.8532 39.1016 22.9803V22.9785C40.9075 20.1452 42.8406 17.5714 44.8812 15.2571ZM102.158 15.259C104.197 17.5733 106.132 20.147 107.937 22.9803V22.9822C109.133 24.8551 110.245 26.8181 111.29 28.8481C113.076 27.5789 114.803 26.2197 116.457 24.7757C112.149 21.0104 107.346 17.801 102.158 15.259Z" fill="#F9F9F9"/>
</svg>
