<svg width="99" height="67" viewBox="0 0 99 67" fill="none" xmlns="http://www.w3.org/2000/svg">
<path fill-rule="evenodd" clip-rule="evenodd" d="M74.1803 0.977398C74.755 0.887265 74.5807 1.18326 74.7625 1.30496L74.7603 1.30797C74.8714 1.38233 75.0615 1.31474 75.1043 1.34179C75.1395 1.36455 74.9053 1.96004 75.2966 2.1035L75.6144 1.72341C76.5241 2.86902 75.377 4.28806 74.725 5.3315C73.843 6.7423 73.3044 7.7204 72.5832 9.21234C72.1212 10.1679 71.539 10.8906 71.2122 11.8101C70.8193 12.9144 70.4354 13.9226 69.721 14.8578L69.4852 14.7451C69.6286 14.978 69.4709 15.6684 69.5949 15.8194C69.7211 15.9726 69.9058 15.8464 70.0223 15.9012C70.0493 15.914 70.475 16.2016 70.4985 16.2205C70.6743 16.3648 70.582 16.7261 70.9561 16.7862C71.3264 16.8598 70.9831 16.5646 71.0162 16.5345C71.2445 16.3295 71.2723 16.7013 71.3174 16.7389C71.6277 17.0041 72.4037 17.6989 72.7507 17.6411C73.0339 17.5938 73.5358 16.2753 73.7686 16.0274C73.9422 15.8434 74.2712 15.8088 74.3148 15.742C74.3786 15.6436 74.3133 15.4152 74.4034 15.2612C74.4365 15.2049 75.2672 14.3921 75.3221 14.356C75.4243 14.2891 76.2004 13.9684 76.2402 13.9999C76.2589 14.0153 76.2433 14.4378 76.5076 14.2305C76.5226 14.2192 76.4686 13.9924 76.594 13.9729C76.7338 13.9511 77.2791 14.063 77.3978 14.1697C77.7231 14.4634 77.5698 14.6384 77.6059 14.9374C77.6585 15.3686 77.5661 15.4152 77.5766 15.5722C77.5841 15.6887 77.835 15.7976 77.7742 16.0552C77.7652 16.0943 77.4046 16.7118 77.3685 16.7501C77.243 16.8861 76.9666 16.9275 76.8517 17.0364C76.8035 17.0816 76.1389 17.9865 76.0802 18.0738C76.0036 18.188 75.5258 18.9978 75.5115 19.0527C75.4153 19.429 75.6211 19.5725 75.8818 19.7791C76.0013 19.8737 77.3182 20.6452 77.4046 20.6715C77.536 20.7121 77.7456 20.5844 77.7802 20.6197C77.8005 20.6399 77.8004 20.9135 77.9109 21.0675C78.4885 21.872 79.3855 21.9449 80.2021 22.355C80.4605 22.485 82.3807 23.7283 82.4814 23.844C82.7856 24.1955 83.0913 24.6207 83.4068 24.9918C83.5751 25.1901 83.8651 25.2848 83.9785 25.6025C84.0807 25.8888 84.1077 26.5033 84.0236 26.7843C83.9582 27.0036 83.6735 27.096 83.6014 27.2568C83.4384 27.6189 83.5466 27.5828 83.2859 27.9892C82.9907 28.4497 82.8787 28.6991 82.2906 28.8831C81.4259 29.1528 80.3779 28.7675 79.6703 29.2941C79.629 29.3249 79.0249 30.0123 79.0061 30.0588C78.9513 30.1918 79.1098 30.4118 79.0663 30.4472C79.049 30.4615 78.8815 30.3451 78.8094 30.3894C78.7343 30.4352 78.2564 31.049 78.0761 31.209C77.8756 31.3863 77.5758 31.5035 77.3332 31.7198C77.2273 31.8137 77.1792 32.0533 77.1273 32.0819C76.8569 32.2336 76.3709 31.8693 76.1831 32.4913C76.1117 32.7264 76.2732 33.0472 76.1004 33.2245C75.8803 33.4506 75.3402 33.4304 75.1434 33.5483C74.5251 33.9194 73.7964 35.2333 73.2601 35.5586C73.0445 35.6893 72.7582 35.672 72.6042 35.7967C72.3661 35.9897 71.8267 37.0009 71.4714 37.3457C70.9268 37.8738 69.7571 38.5311 69.3064 39.0119C68.6551 39.7076 68.8902 40.0471 67.837 40.863C67.5793 41.0628 67.4891 41.5436 66.9317 41.2987C67.1233 41.6878 66.8131 42.1032 66.4209 41.9365C66.6906 42.4548 66.0122 42.6035 65.7365 42.9709C65.3587 43.4727 64.9154 44.5785 64.4655 44.9616C64.2882 45.1126 63.8419 45.1885 63.7653 45.2779C63.6444 45.4206 63.9569 45.2614 63.4821 45.5957C63.3702 45.6746 63.3416 45.9397 63.0998 45.8962C63.0367 46.1238 63.3934 45.9518 63.3537 46.0855C63.3124 46.2252 62.9082 46.7713 62.7812 46.9178C62.314 47.4572 61.7761 47.9192 61.2427 48.3166C61.0429 48.4654 60.9865 48.7471 60.8295 48.829C60.5523 48.9732 60.2946 48.8568 60.0963 48.8943C59.9243 48.9274 59.8747 49.1482 59.6501 49.0859L59.7778 48.835L59.1378 48.705L59.0777 48.9574L58.3731 48.3865H59.1385C58.9379 47.9763 57.9952 47.7878 57.9906 47.3671C57.9876 47.0598 58.467 46.3679 58.5924 46.0509C59.1115 44.743 59.6734 42.8484 60.3142 41.6442C60.466 41.3588 60.7056 41.361 60.768 41.2679C60.8701 41.1146 61.1278 39.9292 61.2871 39.5521C61.6544 38.6844 62.3643 37.786 62.7685 36.9469C63.4536 35.5233 63.6376 34.4145 64.5932 33.0915C64.8839 32.6889 65.1776 31.7619 65.4368 31.206C65.4796 31.1143 65.4023 30.9776 65.4105 30.9693C65.5352 30.8439 65.8837 30.9648 65.8958 30.9438C65.9274 30.8867 65.8845 30.741 65.9536 30.6215C65.9837 30.5689 66.1429 30.5727 66.1625 30.4871C66.2188 30.2437 66.1272 29.9334 66.1903 29.6427C66.2286 29.4638 67.6191 26.6993 67.7686 26.4973C67.9586 26.2411 68.2269 26.178 68.3057 26.0826C68.3313 26.0518 68.2855 25.5891 68.4643 25.3006C69.2561 24.0273 69.9787 22.7968 70.802 21.4776C71.7133 20.018 70.7149 20.1231 69.83 19.595C69.7466 19.5454 69.7391 19.4013 69.6482 19.3427C69.2125 19.0639 68.5882 19.0579 68.9751 18.4471L67.9526 18.4449C67.9391 18.6245 67.9917 18.825 67.9519 18.997C67.8866 19.2765 67.1421 20.2869 66.9475 20.6956C66.7657 21.0757 66.6959 21.6271 66.5246 21.9321C66.3533 22.2371 66.0108 22.1717 65.9078 22.3678C65.6802 22.8005 65.8109 23.5007 65.6629 23.8695C65.3347 24.6899 64.4174 25.2112 64.2724 26.2021C64.1687 26.9134 63.9464 26.8864 63.7045 27.5497C63.5625 27.9404 63.452 28.3829 63.2109 28.8351C63.0907 29.0597 62.7159 29.2701 62.655 29.4188C62.6002 29.5526 62.7587 29.8222 62.6903 30.0927C62.4852 30.9107 61.6724 31.7228 61.3757 32.3628C61.2638 32.6047 61.3336 32.8887 61.2563 33.1366C60.97 34.0478 60.0836 36.436 59.5262 37.1173C58.8974 37.8866 59.3128 37.3983 59.0349 38.1856C58.9657 38.3801 58.7787 38.3576 58.7794 38.4222C58.7952 39.631 57.914 40.6031 57.4174 41.8711C56.9915 42.9581 56.5716 43.9663 56.0548 45.0458C55.7888 45.6024 55.7963 45.7257 55.6025 46.25C55.5544 46.3792 55.2374 46.4814 55.1788 46.7247L55.4335 46.9141C55.1413 46.8916 55.1082 47.2003 54.9317 47.3731C54.8212 47.4813 54.5793 47.5353 54.5538 47.5729C54.4734 47.6893 54.6552 47.9508 54.6372 48.113C54.6079 48.3872 54.1708 48.8702 54.1602 48.9176C54.0543 49.4036 54.0001 50.0189 53.6982 50.4854C53.0213 51.5334 52.8786 53.0208 52.0455 54.0635C51.8915 54.2565 51.6256 54.3121 51.6105 54.3332C51.594 54.3557 51.7645 54.675 51.7359 54.8778C51.7232 54.971 51.4978 54.9499 51.4324 55.1122C50.8382 56.5906 50.1577 58.1787 49.6806 59.7202C49.6446 59.8366 49.426 59.7969 49.4282 59.8862C49.4305 59.9808 49.5776 60.1678 49.5589 60.1927C49.5432 60.213 49.172 60.2296 49.0744 60.3505C48.8723 60.6007 48.7814 61.6862 48.6717 61.8913C48.586 62.0513 48.3097 61.9717 48.2067 62.0993C48.1617 62.1557 48.1481 63.0752 47.949 63.5004C47.9046 63.5944 47.4285 64.4349 47.3924 64.4793C47.2377 64.6693 47.0093 64.5063 46.877 64.7249C47.2173 64.8759 46.9679 65.4393 46.8049 65.6789C46.6817 65.8607 46.4804 65.875 46.4022 65.9764C46.3241 66.0778 46.3459 66.2739 46.2408 66.3896C45.9658 66.6908 45.3813 67.0913 44.9629 66.8959C44.8404 66.8388 44.6038 66.5458 44.4152 66.4159C44.1103 66.2063 43.7534 66.2626 43.7099 65.8472C43.7016 65.7676 43.7294 64.966 43.7444 64.9217C43.8804 64.5258 44.6061 63.5124 44.8592 62.9648C45.3933 61.8086 45.763 60.4407 46.3069 59.3048C46.536 58.8263 47.0513 58.1787 47.2339 57.8083C47.3803 57.5093 47.4059 56.8949 47.5764 56.4885C48.6559 53.9163 50.1562 51.3568 51.2424 48.7899C51.461 48.273 51.4918 47.6608 51.7007 47.2048C51.8419 46.8961 52.6156 46.012 52.6262 45.9338C52.6885 45.4785 52.4684 45.5228 52.8388 44.9001C53.3819 43.9873 53.327 43.5809 53.6824 42.6741C53.8852 42.1573 54.4253 41.4669 54.6379 40.9479C54.9895 40.087 54.825 39.2757 55.8166 38.8061L55.5604 38.6784C55.6859 37.8355 56.0006 37.342 56.4596 36.6666C56.8886 36.0348 56.6257 36.1791 56.8623 35.5203C57.0186 35.0838 57.4362 34.6511 57.6308 34.2364C58.2926 32.8241 58.4339 31.5861 59.4803 30.2759C59.8379 29.8274 59.6313 29.4969 59.7049 29.1649C59.8282 28.6104 60.9542 26.341 61.2825 25.6304C61.3719 25.4365 61.6439 25.2645 61.6672 25.13C61.6904 24.9956 61.5222 24.7958 61.5785 24.7207C61.6153 24.6711 61.8144 24.6681 61.888 24.5712C61.9616 24.4742 61.8617 24.294 61.9376 24.1197C62.1592 23.6134 62.8293 22.7795 63.0704 22.18C63.12 22.0576 63.0953 21.8968 63.0998 21.7631L63.4814 21.89C63.1892 21.3717 63.6038 20.6633 63.9922 20.2945C63.5129 19.9992 63.5249 20.6926 63.2853 20.9931C63.096 21.2305 61.8001 22.4467 61.5559 22.5879C61.4079 22.6735 61.1586 22.618 61.0805 22.6826C61.0279 22.7254 60.8866 23.3594 60.6147 23.5577C60.2278 23.8402 59.267 23.7516 59.1362 24.3157H59.0123C59.0491 24.0055 58.9139 24.043 58.6277 24.0611C58.5834 24.1392 58.7028 24.4644 58.5646 24.4434C58.3971 24.4179 57.7894 24.0453 57.5722 23.9289C57.4926 23.886 57.4843 23.7297 57.3784 23.6809C57.1966 23.5968 56.8713 23.6945 56.7782 23.5563C56.6061 23.2993 56.5445 22.7314 56.3913 22.4016C55.5574 20.6062 54.1031 19.3036 53.4533 17.2956C53.3338 16.9252 53.3368 16.524 53.3195 16.1431C53.3932 16.0094 53.901 16.0207 53.9671 16.047C54.04 16.0756 54.0107 16.2671 54.1076 16.2799C54.345 16.3114 54.7514 16.0598 55.0489 16.2739L54.6657 15.6369L54.4125 15.8908C54.4231 15.5993 54.511 15.3183 54.1572 15.3791V15.2544C54.4411 15.3393 54.7867 14.522 54.9212 14.6144L55.1795 15.3799C55.4087 15.4415 55.2344 15.0892 55.3689 15.126C55.9105 15.2732 56.1164 16.3685 56.5829 16.7216L56.3267 16.847C56.5558 17.2001 56.8398 17.5089 57.1005 17.8372C57.4678 18.2992 57.2146 18.4825 57.7149 18.777L58.8951 20.7339C59.4442 20.7512 59.6171 20.2035 59.9168 19.9248C60.6387 19.2532 61.1143 18.9557 61.6454 18.1436C63.4047 15.4542 65.5247 12.6184 67.5102 9.89519C68.4319 8.63089 69.5565 7.27571 70.3784 6.02418C70.6518 5.608 70.8982 5.03932 71.2723 4.49693C71.3535 4.37974 71.542 4.33914 71.6382 4.1949C72.2234 3.31145 72.9912 1.16295 74.1803 0.977398ZM73.8873 22.2641C73.7348 22.2604 73.2954 22.8208 73.1947 22.9815C72.578 23.9634 72.0791 25.0369 71.5435 26.0699C70.5962 27.8961 69.4326 29.7171 68.5213 31.5914C68.1525 32.3501 68.2426 32.6904 67.6943 33.4206C67.3194 33.9201 67.5252 33.8315 67.369 34.138C66.7357 35.3767 65.977 36.2865 65.6975 37.5538C65.5014 38.4418 65.4398 38.272 64.9582 39.0112C64.8568 39.1667 64.7231 39.3049 64.7577 39.5115C65.0709 39.5491 65.0807 39.2448 65.3053 39.0803C65.4788 38.9533 65.7576 38.9691 65.8387 38.8767C66.0806 38.6018 66.282 37.9903 66.5456 37.6613C67.5951 36.3526 69.6219 34.8216 70.8284 33.6459C71.5172 32.9751 72.3053 31.9594 73.0294 31.4982C73.7386 31.0467 73.5944 30.9385 74.0503 30.5719C74.4778 30.2286 74.6656 30.3383 75.1133 29.7426C75.8142 28.8096 75.7902 29.0725 76.6661 28.3964C76.9726 28.1598 76.9876 27.8818 77.1431 27.7008C77.3024 27.5152 77.8951 26.9442 78.1069 26.7444C78.6659 26.2193 79.3555 26.1803 80.0865 26.1059C80.1428 25.8663 80.0046 25.8587 79.8739 25.7453C79.0558 25.0347 77.5541 24.5013 76.6451 23.8658C76.3829 23.6825 76.0539 23.243 75.8308 23.0875H75.83C75.7068 23.0019 75.0218 22.6278 74.8782 22.5669C74.5965 22.4482 74.1908 22.3626 73.8873 22.2641ZM77.083 14.3628C76.709 14.3049 77.0304 14.5482 76.9966 14.5941C76.9162 14.703 76.3101 15.0832 76.2552 15.1921C76.4257 15.1696 76.5069 15.4799 76.5279 15.4926H76.5271C76.5842 15.5279 77.2758 15.2516 77.2746 15.1921C77.2731 15.1576 77.0665 15.0381 77.0365 14.9142C76.9839 14.6963 77.4706 14.6017 77.083 14.3628ZM74.4658 2.1035L74.9766 2.23196L74.7197 1.72341H74.595L74.4658 2.1035Z" fill="white"/>
<path fill-rule="evenodd" clip-rule="evenodd" d="M40.3001 50.2427C40.8109 49.7364 40.9476 49.1933 41.8912 49.5982L41.8897 49.5997C41.9055 49.8161 41.6064 49.7139 41.4321 49.8423C41.2661 49.9648 41.1211 50.4351 41.3472 50.4884C41.6973 50.5703 42.2442 51.1179 41.8649 51.3666C41.7439 51.4462 41.4675 51.275 41.5081 51.5116C41.6493 51.5386 41.8934 51.5739 41.9903 51.6693C42.2735 51.9488 41.9115 52.501 42.9113 51.8962C43.1599 52.4003 42.3712 52.661 42.3118 52.821C42.0782 53.4475 41.9851 53.7991 41.4464 54.325C40.8026 54.9537 40.2813 55.1551 39.7321 55.8965C39.642 56.0182 39.4595 55.9761 39.3483 56.0572C39.1545 56.1992 39.228 56.5072 38.6962 56.3645C38.6429 56.3999 38.9328 57.299 38.9809 57.3561C39.1078 57.5064 39.6916 57.4598 39.8336 57.8459C40.0071 58.3184 39.5315 58.072 39.2093 58.217C39.1439 58.2463 38.8518 58.5407 38.8254 58.6001C38.6752 58.9397 39.37 58.6107 39.207 59.0448C38.7833 59.1109 38.6443 58.7707 38.4745 58.6633C38.2492 58.5213 37.9104 58.4071 37.8 58.3462C37.6581 58.2674 37.8096 58.0406 37.7962 58.0322C37.7098 57.9796 37.1066 57.9503 36.9646 57.9984C36.719 58.081 36.7393 58.2801 36.5755 58.3883C35.6177 59.0193 34.3579 59.6248 33.3362 60.2626C32.9486 60.5045 32.8096 60.953 32.1906 61.0251C31.9397 61.0544 31.1907 60.5075 31.1607 60.3595C31.1081 60.1056 31.1839 59.8584 31.3049 59.6353C31.4582 59.3536 32.4452 58.5949 32.7622 58.2869C32.9868 58.0683 33.2941 57.5784 33.5187 57.3794C33.696 57.2231 34.0453 57.278 34.1633 56.8746L34.6095 57.2562C34.6448 56.982 34.3466 56.6702 34.3474 56.4373C34.3476 56.3231 35.5515 56.0729 34.6613 55.0987C34.4247 54.8403 33.488 54.2484 33.3895 54.065C33.1664 53.6519 33.7208 53.3897 33.72 53.108C33.72 53.0606 33.2941 53.0133 33.4624 52.6647C34.4194 52.3605 35.405 52.9119 35.8821 53.751C36.1473 53.7735 36.4124 54.403 36.5897 54.3197C36.746 54.2461 36.9526 53.7428 37.1126 53.5647C37.655 52.9607 38.4858 52.3049 38.878 51.6957C38.9433 51.5942 39.1785 51.5687 39.0831 51.2562L39.464 51.6385C39.3844 50.8881 39.8877 50.6514 40.3001 50.2427ZM40.9957 52.1523C40.5525 52.3634 40.2685 52.8825 39.7179 52.7932C39.8163 53.0012 39.6938 53.3093 40.0349 53.2995C40.3496 52.8998 41.0558 52.7653 40.9957 52.1523ZM39.4632 52.0247C39.3039 51.9413 39.0185 52.2283 39.0808 52.2786L39.4632 52.4071V52.0247Z" fill="white"/>
<path fill-rule="evenodd" clip-rule="evenodd" d="M19.1568 3.7705C19.4686 3.89593 20.2964 3.46776 20.5323 3.66831H20.5346C20.5624 3.69163 20.7111 4.35037 20.814 3.63823H20.9395C21.1498 4.30833 21.9311 4.15962 21.9566 4.99499C21.9656 5.27818 21.838 5.49077 21.8447 5.73191C21.8951 7.35831 21.9333 8.9765 21.9686 10.5909C21.9867 11.4292 22.1182 12.055 22.1482 12.7672C22.1805 13.5169 21.8252 15.488 21.9814 16.0868C22.0438 16.3249 22.4404 16.9958 22.4712 17.5089C22.493 17.8792 22.2999 17.9626 22.2789 18.1271C22.2023 18.7191 22.4427 20.625 22.5554 21.2192C22.6373 21.6489 22.8656 24.1043 22.9865 24.1933C23.5094 24.0828 23.6439 23.4398 23.9744 23.1686C24.1585 23.0176 24.8856 22.6555 25.1148 22.5353C26.4211 21.8502 27.9026 24.1587 26.6278 25.2164C26.3911 25.4133 25.9562 25.5132 25.7871 25.7806C25.3664 26.4462 25.4446 27.5363 24.5852 28.2822C24.0608 28.7375 23.7738 28.4971 23.7663 29.5007C23.7618 30.1332 23.9196 30.2474 24.0173 30.7695C24.163 31.5478 24.2659 32.5063 24.3944 33.3297C24.7692 35.7351 25.0329 37.6657 24.8984 40.0877C24.8857 40.3191 25.0592 40.5264 25.0081 40.8217C24.8714 41.6097 23.8309 42.1153 23.0774 41.9087C23.0164 41.892 22.1797 41.479 22.1512 41.4354C22.1083 41.3701 22.2135 41.1913 22.1512 41.0545C21.2182 38.9894 21.3962 37.0708 21.0537 34.8674C20.9823 34.4069 20.7464 33.9352 20.6908 33.5701C20.6014 32.9759 20.8065 32.3186 20.5556 31.7258C20.3648 31.5914 19.9088 32.2389 19.7029 32.3546C19.5091 32.4628 19.3115 32.3696 19.2965 32.3839C19.2207 32.4561 19.2199 32.7701 19.0216 32.9368C18.8842 33.0525 18.0668 33.3718 18.0202 33.4101C17.9571 33.4619 17.9556 33.7211 17.8369 33.8615C17.5665 34.1823 16.3119 34.9028 15.9498 35.2626C15.756 35.4549 15.6426 35.8613 15.3226 36.1355C14.5676 36.783 14.6209 36.3158 14.1957 37.4336C14.1447 37.5673 13.9689 37.68 13.9358 37.819C13.8855 38.0316 14.0807 38.3508 14.0409 38.6739C14.0049 38.9729 13.7503 39.1667 13.6631 39.4552C13.4783 40.0659 13.4025 40.7323 13.265 41.355C13.1959 41.669 12.9262 41.7772 13.1463 42.1957L12.8923 42.0657C12.8743 42.2445 12.9675 42.4165 12.9509 42.5945C12.7962 44.2472 12.0735 46.0133 11.6829 47.6728C11.598 48.0341 11.5484 49.1054 11.4462 49.3878C11.3839 49.5606 11.1961 49.6493 11.1345 49.8228C11.006 50.1856 10.8633 50.6371 10.9767 51.003L10.5921 51.0045L10.846 51.1314L10.6552 51.5116L10.3374 51.1314C10.2585 51.5837 9.89197 51.7918 9.45627 51.8301C8.87934 51.8805 8.85828 51.2607 9.44197 51.3853L9.18659 50.9384L9.44123 50.8122L8.93041 50.6214C9.06262 50.897 8.98826 51.2374 8.86732 51.5131C8.31968 51.2952 8.71629 50.5853 8.6622 50.5117C8.50669 50.3029 8.10406 50.4012 8.16716 49.6763C8.25205 48.6997 8.62316 48.1852 8.84927 47.3979C8.93416 47.1027 8.86804 46.6534 8.96871 46.2515C9.37963 44.6138 9.7515 43.0235 10.1106 41.3918C10.1534 41.198 10.5613 40.5032 10.4637 40.4062C9.94458 40.3544 9.81459 40.7585 9.55692 40.9674C7.98837 42.2407 6.44384 43.6546 5.07811 45.0503C4.45085 45.6911 4.05791 45.9938 3.37355 46.5332C3.20076 46.6692 2.72076 47.2641 2.60882 47.2724C2.46835 47.2821 2.26024 46.9681 2.03337 47.044L2.03191 47.4295C1.74644 47.2439 1.56386 47.3799 1.26638 47.4272L1.52182 47.0463L1.0771 47.3017C-0.121085 46.9404 -0.0279649 45.0338 0.750276 44.2961C0.966629 44.091 1.31225 43.9828 1.48052 43.8123C1.71565 43.5734 2.07548 43.0295 2.19793 42.8589C2.32269 42.6854 3.09189 42.3699 3.15574 42.2858C3.21506 42.2069 3.13698 42.0116 3.25866 41.9275C3.42093 41.8155 3.72894 41.8666 3.95655 41.6262C4.1113 41.4632 4.13154 41.1755 4.23445 41.074C5.56036 39.7759 7.47753 38.275 9.02806 36.9634C9.30226 36.7312 9.82664 36.5111 10.0723 36.2474C10.3021 36.0003 10.363 35.6952 10.6515 35.4218C10.9129 35.1739 11.5672 34.9268 11.6708 34.6661C11.7182 34.5474 11.6063 34.3476 11.6664 34.15C11.7317 33.9344 12.0112 33.6625 12.1269 33.4454L11.8985 33.3628C12.066 32.9834 12.066 32.5079 12.1839 32.1015C12.2906 31.7318 12.5919 31.1962 12.6332 30.8852C12.7136 30.2872 12.4777 29.8695 12.7722 29.1379C13.0208 28.5204 12.8525 28.8298 12.9164 28.2424C12.9449 27.9847 13.1621 27.7796 13.2154 27.57C13.265 27.3777 13.129 27.108 13.1733 26.8451C13.2567 26.3478 13.6007 25.7498 13.7179 25.2299C13.8486 24.6538 13.8036 23.7583 13.9456 23.1371C14.0583 22.642 14.4466 22.1837 14.5248 21.8021C15.0394 19.2975 15.5059 16.7313 16.0272 14.3026C16.2443 13.2892 16.8588 11.6163 16.6996 10.6299C16.6177 10.1236 16.185 9.55037 16.1061 9.15974C16.0272 8.76911 16.2811 8.49265 16.1068 8.02615C16.0339 7.8316 15.8417 7.84136 15.8447 7.79403C15.8995 7.04957 15.9791 6.70474 16.2774 6.06394C16.3825 5.83783 16.2631 5.59522 16.5553 5.43897C16.5944 5.41793 17.3757 5.2271 17.42 5.2271C17.716 5.22485 18.1396 5.52381 18.3853 5.36987C18.5581 5.26169 18.5949 4.85897 18.7114 4.66816C18.8984 4.36169 19.2011 4.26702 19.1568 3.7705ZM10.209 50.4929C9.96709 50.4523 9.78454 50.6424 9.82734 50.8753C10.073 50.7415 10.2916 50.8039 10.209 50.4929ZM18.3215 18.4471C17.9218 19.622 17.7941 20.8578 17.4576 22.0515C17.3441 22.4557 17.157 23.0161 17.0233 23.4263C16.9662 23.5998 16.6185 23.8642 16.7574 24.04C16.7852 24.0753 16.9385 24.0513 16.9588 24.0806C17.1135 24.3029 16.653 24.4585 16.6372 24.6358C16.6237 24.7883 16.84 24.9888 16.7912 25.2255C16.7529 25.4125 16.3953 25.9977 16.3848 26.187C16.3352 27.0562 16.233 27.9742 16.0813 28.8464C15.9731 29.4661 15.3338 30.173 15.5765 30.9596C16.2135 31.1106 16.0865 30.6831 16.3855 30.3631C16.7927 29.9274 17.5094 29.4639 17.9602 29.0011L17.9593 29.0004C18.214 28.7397 18.4469 28.2837 18.6993 28.0163C19.4611 27.211 20.18 27.208 19.8907 25.6875C19.5662 23.9845 19.0344 21.8397 18.8067 20.1329C18.7279 19.5387 19.0126 18.8964 18.3215 18.4471ZM25.2846 23.4894C25.4401 23.587 25.6204 24.1257 25.6895 24.1677C26.2063 24.487 25.9839 23.7703 26.0605 23.6869C26.1462 23.5945 26.5759 23.8875 26.4324 23.2985L25.2846 23.4894Z" fill="white"/>
<path d="M41.7634 50.1098C42.1954 50.1151 42.1135 50.2841 42.0173 50.6199C41.7634 50.5515 41.7311 50.3479 41.7634 50.1098Z" fill="white"/>
<path fill-rule="evenodd" clip-rule="evenodd" d="M47.2075 16.2972C47.4817 16.1432 48.8564 15.7383 49.0353 15.908L49.0375 15.905L49.0443 16.2776C49.6994 15.9936 50.0675 16.5789 49.172 16.5954C49.2877 16.9199 49.6348 17.0138 49.7783 17.2655C50.6189 18.7431 48.8686 18.7334 48.0595 19.58L47.6395 19.4673C47.6139 19.6138 47.5884 19.8527 47.4765 19.9474C47.4018 20.0106 45.9507 20.7098 45.7231 20.8097C45.3888 20.9562 44.679 21.0164 44.3973 21.247C44.3567 21.2808 43.9833 21.8734 43.7805 21.9929C43.6213 22.0868 43.332 21.9764 43.1209 22.041C42.9962 22.0794 41.2038 23.3241 41.0085 23.5014C40.3203 24.1242 40.702 24.2256 40.6111 24.8867C40.5803 25.1105 40.4097 25.3073 40.3669 25.5485C40.285 26.012 40.3646 26.4364 40.2302 26.8729L41.5418 26.2389C42.2314 25.6755 43.5461 24.626 44.3567 24.2827C44.5655 24.1941 44.7563 24.3135 44.8044 24.2842C44.8322 24.2668 44.8187 24.0724 44.9058 24.0573C45.6525 23.9326 46.5097 24.8649 46.7952 25.4824C47.2256 26.4124 46.7365 26.4304 46.5187 27.223C46.1108 28.7104 45.9132 28.6917 45.2371 29.8974C44.9487 30.4112 44.8419 31.5298 44.1891 31.2158L44.3191 31.4689L43.6798 31.5981C43.7181 31.4584 43.5521 30.6561 43.5108 30.605C43.2208 30.2497 42.8039 30.2053 42.7753 30.7575C42.7768 30.9062 43.1089 30.7425 43.0398 30.958C41.9926 31.3922 42.9097 31.5613 42.9106 31.6619C42.9166 32.2599 41.771 31.2466 41.6951 30.5892C41.6545 30.2422 42.0489 30.1377 42.0189 29.8117L41.5111 29.6825C41.4615 30.1948 41.1166 30.4562 40.6118 30.451C40.8559 30.7755 40.5863 30.6674 40.4353 30.8401C39.8546 31.5065 39.0605 31.8272 38.8517 32.8384C38.7939 33.1201 38.875 33.4296 38.8006 33.6812C38.7022 34.0148 38.5767 34.1252 38.4415 34.7074C38.3882 34.9358 38.3191 34.4836 38.3184 35.2355C38.3184 36.0634 37.996 36.1926 37.8631 36.8296C37.7722 37.2653 37.9578 37.9077 37.7962 38.402C37.7519 38.5372 37.3959 38.4606 37.6738 39.1322L37.4198 39.0022C37.2839 39.7316 37.655 39.4146 37.7819 39.534C37.833 39.5821 37.7497 40.1395 38.0554 39.8969C38.0697 39.8854 38.0885 39.6639 38.1575 39.5566C38.576 38.9075 38.7255 38.8384 39.2716 38.3659C39.5007 38.1676 39.5098 37.7687 39.9748 37.8528C40.004 37.8347 39.7983 37.5575 39.8493 37.4839C39.8796 37.4402 40.5645 37.0505 40.7268 36.8845C41.4457 36.1506 42.0189 35.6036 42.8918 34.9606C44.2801 33.9382 45.6976 32.2885 47.1302 31.1557C47.5118 30.8537 48.3667 30.4975 48.7498 30.1565C49.0007 29.9334 49.4852 29.1289 49.7054 28.95C49.7347 28.926 50.1441 29.0176 50.2928 28.8922C50.3965 28.805 50.3612 28.5368 50.4792 28.4384C51.44 27.6399 52.5202 26.9007 53.5208 26.0511C53.6741 25.9211 53.7184 25.6874 53.8582 25.5928C54.242 25.3329 54.9715 25.3952 55.3388 25.2127C55.4252 25.1699 55.4696 24.747 55.6852 24.9618C55.7339 25.0107 55.4042 25.3149 55.4478 25.5177C55.4823 25.6769 55.9195 25.9023 55.8143 26.2373C56.0322 26.2666 55.9308 25.9189 56.1471 25.8633C56.3161 25.8197 56.6002 26.0345 56.8338 25.855C56.9247 26.1863 56.5776 26.3726 56.5198 26.6062C56.4792 26.7715 56.6001 26.9706 56.4972 27.2252C56.4678 27.2967 55.4935 28.2732 55.4177 28.3326C52.5615 30.5787 49.8797 33.0593 46.8049 35.1725C46.2453 35.5571 45.7337 36.587 45.1327 37.07C44.0427 37.946 42.9496 38.6641 41.9716 39.7842C40.2054 41.8065 38.6534 43.7634 36.9075 45.8353C36.5627 46.2447 35.5756 47.0042 35.0543 47.0486C34.7335 47.0764 34.9078 46.869 34.8567 46.676L33.841 46.6632C34.1836 46.1373 33.6848 46.3386 33.5961 46.0742C33.5743 46.0081 33.5623 44.7933 33.5743 44.6807C33.6127 44.3298 33.7209 44.006 33.7734 43.535C33.8005 43.2909 34.1573 42.5923 34.2189 42.2505L33.9702 42.1941C33.8493 41.8554 34.1716 42.0041 34.2212 41.8516C34.4323 41.2063 34.1445 39.9367 34.4728 39.3395C34.5509 39.1975 34.732 39.2606 34.8627 39.2583C34.5397 38.4335 34.9371 37.674 34.8612 36.8334C34.5246 37.3374 33.8665 37.3833 33.8387 37.9813L33.4579 37.7274C33.4204 37.9662 33.5788 38.2314 33.4985 38.4613C33.4519 38.5927 33.2784 38.6033 33.2145 38.7235C32.8712 39.3665 32.6669 40.1958 31.987 40.5362L31.9231 40.2822C31.6069 40.1816 31.6361 40.5369 31.519 40.6301C31.4882 40.6548 31.3266 40.579 31.2027 40.6331C30.8549 40.7856 30.6032 41.053 30.124 40.9741C30.0421 40.9606 29.0693 40.5385 29.0241 40.4994C28.9415 40.4273 28.7244 39.8827 28.6914 39.7422C28.5036 38.9384 28.4735 38.1946 28.5441 37.3487C28.605 36.6238 28.4007 36.0859 28.3834 35.3294C28.638 35.4345 28.611 34.5835 28.5794 34.5497C28.5223 34.4888 28.297 34.6248 28.3488 34.4085L28.6035 34.2815C28.2767 34.3318 28.2451 33.8413 28.2219 33.5768C28.137 32.5972 28.4036 31.224 28.3135 30.4022C28.2894 30.1806 28.0679 29.9995 28.0799 29.6164C28.0867 29.3918 28.472 29.3647 28.448 29.107C28.4397 29.0131 28.1933 28.8884 28.1287 28.7066C28.0904 28.5983 27.977 26.6993 27.9649 26.4282C27.9101 25.127 28.173 23.6096 28.0934 22.352C28.0513 21.6887 27.8755 20.616 27.9919 19.9541C28.0761 19.4771 28.4367 19.1758 28.481 18.7056C28.9603 18.9151 29.4801 18.3825 30.0075 18.3217L29.5598 18.5794L29.4967 18.831L29.8888 18.8949L30.0707 19.2141C30.3163 18.4179 30.6431 18.6568 30.7572 19.311C30.8436 19.8038 30.6634 19.4951 30.894 19.9481C31.2027 20.5536 30.8068 20.6197 30.776 20.9435C30.7234 21.4859 31.0743 22.2905 30.7753 22.9177L31.1607 22.9838C30.9105 23.6847 30.8947 24.5223 30.9015 25.2721C30.9097 26.2531 31.0352 27.1441 30.9601 28.0869C30.9218 28.5684 31.1374 28.8186 31.1449 29.1048C31.1547 29.4841 30.7167 30.0852 30.9668 30.4555C31.0239 30.5396 31.2207 30.5449 31.2598 30.602C31.271 30.6178 31.2748 30.6951 31.3657 30.8724C31.4506 31.0369 31.3297 31.2503 31.54 31.2165L35.9016 16.6817C36.6994 16.3888 36.6236 17.155 37.2892 17.0446L37.1614 16.6638C37.489 16.8448 38.2364 16.4354 38.4513 16.7441C38.5099 16.8282 38.588 17.6261 38.5684 17.7252C38.5489 17.8244 38.3348 17.7981 38.3115 17.895C38.2229 18.2669 38.3484 18.8551 38.2184 19.3133C38.0734 19.8249 37.6069 20.2704 37.8638 20.8744C38.4888 20.5987 38.6076 19.7115 39.298 19.6214C39.6112 19.5808 40.1867 19.7798 40.6096 19.5988L40.6171 19.9782C41.3375 20.024 41.7334 19.5206 42.3381 19.2141C42.3269 19.5732 42.8181 19.4493 42.903 19.3351C42.9151 19.3193 42.7701 19.1248 42.8415 18.9655C42.9872 18.6395 44.0216 18.2526 44.3582 18.0445C44.8066 17.7666 45.2574 17.3241 45.7344 17.122C45.9898 17.0138 46.4239 17.0251 46.4586 17.0048C46.5773 16.9365 46.9641 16.4339 47.2075 16.2972ZM37.9307 42.0649H38.3131V41.811H37.9307V42.0649ZM36.7798 24.9595C36.5529 24.9212 36.7054 25.1676 36.6213 25.3066C36.5709 25.39 36.3381 25.4118 36.2352 25.6243C36.0774 25.9474 36.1758 26.3846 36.0879 26.7557C35.9091 27.5137 35.4404 28.8577 35.1842 29.6825C34.9551 30.4194 34.4119 31.4471 34.3083 32.1367C34.2865 32.2832 34.2076 32.4102 34.4179 32.4906C34.4953 32.5199 34.4668 32.3298 34.5742 32.2381C35.0415 31.8407 36.2081 30.8349 36.432 30.2842C36.5109 30.0911 36.3854 29.8027 36.4237 29.5285C36.4568 29.2904 36.716 28.3295 36.8009 28.1064C36.861 27.9487 37.0059 27.8961 37.1629 27.893C37.2207 27.6745 36.9811 27.8202 36.921 27.7541H36.9218C36.8324 27.6564 37.2996 25.8453 37.2658 25.6755C37.226 25.4771 36.749 25.269 36.7798 24.9595Z" fill="white"/>
<path d="M7.22211 22.817C7.54513 22.7577 8.27678 23.1671 8.28659 23.4803C8.28959 23.572 8.19416 23.6734 8.18139 23.7538C8.17017 23.8244 8.42483 23.7966 8.42935 23.88C8.44363 24.1287 8.11908 24.635 8.09805 24.8897C8.03797 25.6206 8.7005 26.761 7.83285 27.3695C7.53687 27.5775 7.20181 27.5107 6.92837 27.6136C6.6677 27.7113 6.47238 27.9464 6.30186 28.0125C5.97132 28.1409 5.94199 26.7542 5.61145 27.1298C5.58216 27.1636 5.86763 27.8382 5.54836 28.0215C5.41765 27.9073 5.26589 27.9223 5.18551 27.7398C4.87828 27.0404 5.29671 27.2057 5.46047 26.9195C5.51081 26.8316 5.77899 26.0097 5.73917 25.9812C5.28544 26.1652 5.20805 25.7363 5.17275 25.7378C3.91146 25.8122 4.10301 25.5507 3.19704 25.411C2.62311 25.3224 2.6276 25.5004 1.89817 25.1774C1.69158 25.0858 1.58489 25.3111 1.52329 24.7034C1.5939 24.7199 1.69612 24.6966 1.778 24.7034L1.64955 24.194H1.5241C1.53308 24.3602 1.50625 24.5361 1.52241 24.7023C1.39339 24.6712 1.23954 24.4003 1.0132 24.5756L1.00499 23.7538C1.0125 23.7103 1.64204 23.5443 1.7089 23.5465C1.79224 23.5496 1.77123 23.8071 1.8328 23.7989C2.66966 23.6817 5.41311 23.859 5.97056 24.4787C5.99685 24.508 5.99914 25.1308 6.2508 24.8295C6.28073 24.7934 6.12537 24.6485 6.15462 24.602C6.17265 24.5734 6.33865 24.5907 6.3717 24.4847C6.50016 24.0761 6.57081 22.9364 7.22211 22.817Z" fill="white"/>
<path d="M1.52329 24.7026L1.52256 24.7041C1.5225 24.7035 1.52247 24.7029 1.52241 24.7023C1.52271 24.7024 1.52299 24.7025 1.52329 24.7026Z" fill="white"/>
<path fill-rule="evenodd" clip-rule="evenodd" d="M97.9724 0.317069C98.1497 0.3066 98.816 0.771586 98.831 0.882762C98.849 1.01422 98.6229 1.67748 98.4862 1.77895C98.3855 1.85332 97.8146 1.76699 97.6434 1.97057C97.5352 1.9901 97.6703 1.64678 97.4623 1.72261C97.6005 2.01408 96.6961 2.11629 96.5082 2.10277C96.0447 2.07122 96.1484 1.72188 95.4588 2.14855C94.7121 2.6098 94.7601 2.53398 93.8489 2.77212C93.5852 2.84125 93.2727 3.24162 92.9925 3.32953C92.6665 3.43169 92.4561 3.2446 92.2172 3.3062C92.0039 3.36104 90.7478 4.47065 90.1648 4.70954C89.8298 4.84699 89.2694 4.79288 89.1124 4.89954C88.9359 5.01974 89.0185 5.37808 88.875 5.52833C88.7465 5.66203 88.4927 5.55015 88.4198 5.59296C88.1711 5.7387 87.513 6.2833 87.1434 6.53346C86.7588 6.79263 86.1736 7.12469 85.8543 7.42143C85.5043 7.74595 85.3548 7.97961 85.3263 8.48818L85.7078 8.36046C85.5396 9.69838 87.9187 9.62254 87.4958 10.9139L87.3711 10.66H86.6041C86.5989 10.9041 86.9834 10.8515 87.1134 10.7862V11.5524C86.8046 11.3376 86.5372 11.5862 86.2195 11.5013C85.7469 11.3743 84.5697 10.5563 84.4706 10.5337C84.1085 10.4504 83.6803 10.5307 83.295 10.2618L83.4114 10.0214L83.038 10.0139L83.0252 9.3821C82.4843 9.4377 82.28 9.86516 81.7481 9.89446L81.8774 10.1476C81.6445 10.053 80.7491 10.5586 81.1111 10.0214L80.728 10.1491L80.5988 9.38136L80.2171 9.50982C80.3794 8.851 80.4087 7.98336 80.6882 7.36736C80.7513 7.22914 80.8362 7.19153 80.9819 7.20956C80.4726 6.68821 80.8692 6.15559 80.9105 5.56963C80.9353 5.22032 80.7986 4.91308 80.8835 4.49466C80.9789 4.02514 81.4289 3.63747 81.7489 3.30994C81.8041 3.28534 82.6775 3.7224 82.7345 3.80051C82.8652 3.97855 82.8397 4.39853 82.9711 4.65019C83.165 5.02052 83.7487 5.17603 83.7066 5.76873L84.4293 6.57256C84.4608 6.38701 84.7718 6.03844 84.9093 5.93776C85.0077 5.86565 85.8587 5.33314 85.9167 5.32328C86.0421 5.3015 86.3118 5.47347 86.3464 5.4254C86.3764 5.38333 86.3133 5.13845 86.4734 4.97694C86.6612 4.78762 88.0795 3.89744 88.4017 3.70888C88.7233 3.52107 89.0516 3.62325 89.1643 3.56465C89.331 3.4775 89.4151 3.17173 89.6232 3.01473C89.8313 2.85773 90.7177 2.43408 91.0445 2.26505C92.3156 1.60547 93.8256 1.09388 95.1943 0.797148C95.6879 0.690475 96.2934 0.526649 96.7719 0.455282C97.1306 0.401357 97.4849 0.357876 97.8429 0.318903C97.5366 1.02937 97.6427 1.54834 98.4817 1.59342C98.3998 1.35153 98.4073 0.997731 98.3307 0.784383C98.2353 0.519952 97.871 0.689676 97.9724 0.317069ZM82.259 7.34102C82.1967 7.39136 82.4829 7.67756 82.6414 7.59493V7.21257L82.259 7.34102ZM92.0932 2.36174C91.4495 2.21982 91.5218 2.92846 91.904 3.12595C92.2871 3.32424 91.8296 2.7165 91.8326 2.55424L92.0932 2.36174Z" fill="white"/>
<path d="M97.8429 0.318903L97.8431 0.318609H97.8461C97.8451 0.318726 97.844 0.318786 97.8429 0.318903Z" fill="white"/>
</svg>
