<svg width="5216" height="3334" viewBox="0 0 5216 3334" fill="none" xmlns="http://www.w3.org/2000/svg">
<path fill-rule="evenodd" clip-rule="evenodd" d="M5216 3334H0.742188V0.125977H5216V3334ZM2334.13 1706.87C2267.74 1706.87 2206.55 1742.89 2174.18 1800.91L1972.75 2162.54H2386.2C2452.89 2162.54 2514.4 2126.21 2546.55 2067.78L2745.29 1706.87H2334.13ZM2610.03 1171.58L2826.09 2024.28C2846.63 2105.56 2919.76 2162.54 3003.57 2162.54H3243.9L3025.35 1309.32C3004.6 1228.25 2931.58 1171.58 2847.98 1171.58H2610.03ZM2337.55 1171.58C2271.17 1171.58 2209.97 1207.6 2177.61 1265.62L1976.17 1627.25H2250.94C2317.63 1627.25 2379.14 1590.93 2411.3 1532.49L2610.03 1171.58H2337.55Z" fill="#0D0D0D"/>
</svg>
