<svg width="209" height="46" viewBox="0 0 209 46" fill="none" xmlns="http://www.w3.org/2000/svg">
<g clip-path="url(#clip0_344_28)">
<mask id="mask0_344_28" style="mask-type:luminance" maskUnits="userSpaceOnUse" x="0" y="0" width="209" height="46">
<path d="M208.225 0.924805H0.554688V45.0748H208.225V0.924805Z" fill="white"/>
</mask>
<g mask="url(#mask0_344_28)">
<path d="M76.094 2.59459L76.134 6.36459C75.064 5.00459 73.704 3.92459 72.044 3.13459C70.374 2.35459 68.304 1.95459 65.844 1.95459C63.754 1.95459 61.804 2.33459 59.994 3.07459C58.184 3.81459 56.624 4.88459 55.304 6.26459C53.984 7.64459 52.944 9.29459 52.194 11.1946C51.454 13.0846 51.084 15.1546 51.084 17.4146C51.084 19.6746 51.454 21.8346 52.194 23.7846C52.934 25.7146 53.974 27.3846 55.304 28.7646C56.624 30.1446 58.184 31.2346 59.994 32.0246C61.804 32.8046 63.754 33.2046 65.844 33.2046C68.314 33.2046 70.384 32.7946 72.044 31.9846C73.704 31.1846 75.064 30.1146 76.134 28.7946L76.094 32.5646H83.284V2.59459H76.094ZM75.364 21.1046C74.944 22.2346 74.334 23.2146 73.544 24.0446C72.754 24.8846 71.814 25.5446 70.704 26.0246C69.594 26.5246 68.374 26.7546 67.064 26.7546C65.754 26.7546 64.544 26.5146 63.484 26.0246C62.414 25.5346 61.504 24.8846 60.744 24.0446C59.974 23.2146 59.374 22.2446 58.954 21.1046C58.524 19.9846 58.314 18.7746 58.314 17.4946C58.314 16.2146 58.524 15.0246 58.954 13.9246C59.374 12.8146 59.974 11.8546 60.744 11.0446C61.504 10.2346 62.424 9.59459 63.484 9.12459C64.554 8.64459 65.744 8.41459 67.064 8.41459C68.384 8.41459 69.594 8.64459 70.704 9.12459C71.814 9.59459 72.754 10.2346 73.544 11.0446C74.334 11.8546 74.944 12.8046 75.364 13.9246C75.794 15.0346 76.004 16.2246 76.004 17.4946C76.004 18.7646 75.794 19.9846 75.364 21.1046Z" fill="white"/>
<path d="M109.356 2.59473L101.236 25.3547L93.1256 2.59473H85.2656L96.9556 32.5747H105.456L117.216 2.59473H109.356Z" fill="white"/>
<path d="M145.394 10.9446C144.674 9.08459 143.644 7.49459 142.294 6.15459C140.954 4.81459 139.354 3.77459 137.474 3.04459C135.594 2.32459 133.514 1.95459 131.214 1.95459C128.694 1.95459 126.474 2.39459 124.564 3.27459C122.644 4.15459 121.034 5.30459 119.744 6.75459C118.434 8.20459 117.444 9.87459 116.774 11.7346C116.084 13.6146 115.754 15.5746 115.754 17.6146C115.754 19.6546 116.074 21.5646 116.744 23.4346C117.404 25.3146 118.374 26.9746 119.654 28.4146C120.934 29.8646 122.534 31.0246 124.444 31.8946C126.364 32.7746 128.554 33.2146 131.024 33.2146C134.684 33.2146 137.844 32.3046 140.504 30.4946C143.174 28.6846 145.014 26.1746 146.044 22.9846L138.564 23.0546C137.844 24.2846 136.884 25.2246 135.714 25.8646C134.544 26.5046 133.154 26.8146 131.534 26.8146C130.084 26.8146 128.824 26.5846 127.774 26.1046C126.704 25.6346 125.814 24.9946 125.084 24.1646C124.364 23.3346 123.814 22.3446 123.454 21.1946C123.284 20.6446 123.154 20.0746 123.064 19.4746H146.294C146.384 19.0946 146.434 18.7146 146.454 18.3246C146.474 17.9446 146.494 17.5146 146.494 17.0446C146.494 14.8346 146.124 12.7946 145.394 10.9446ZM123.214 14.6146C123.274 14.3346 123.334 14.0746 123.414 13.8146C123.754 12.6946 124.274 11.6946 124.944 10.8546C125.634 9.99459 126.484 9.33459 127.534 8.83459C128.584 8.34459 129.784 8.10459 131.144 8.10459C132.074 8.10459 133.004 8.25459 133.924 8.55459C134.834 8.85459 135.664 9.27459 136.414 9.83459C137.154 10.3846 137.774 11.0746 138.274 11.8846C138.764 12.6946 139.074 13.6046 139.194 14.6246H123.204L123.214 14.6146Z" fill="white"/>
<path d="M177.866 2.59471L163.746 36.4047C163.156 37.8147 162.896 38.4147 162.156 39.5647C161.406 40.7147 160.546 41.6847 159.556 42.5047C158.576 43.3147 157.446 43.9447 156.136 44.3847C154.856 44.8247 153.356 45.0547 151.636 45.0647H149.856V38.7247H151.226C152.986 38.6947 154.326 38.2547 155.246 37.4147C156.206 36.5447 156.566 35.9447 157.166 34.2847L157.676 32.8747L145.016 2.57471H152.946L161.446 25.0347L169.946 2.57471H177.866V2.59471Z" fill="white"/>
<path d="M207.016 11.4246C206.206 9.50459 205.086 7.86459 203.666 6.46459C202.236 5.08459 200.536 3.98459 198.576 3.17459C196.626 2.36459 194.486 1.95459 192.196 1.95459C189.906 1.95459 187.696 2.36459 185.736 3.17459C183.786 3.98459 182.086 5.08459 180.656 6.46459C179.226 7.85459 178.116 9.50459 177.306 11.4246C176.496 13.3446 176.096 15.4046 176.096 17.6146C176.096 19.8246 176.496 21.8946 177.306 23.7946C178.116 25.6946 179.226 27.3346 180.656 28.7446C182.086 30.1546 183.786 31.2546 185.736 32.0446C187.696 32.8246 189.856 33.2246 192.196 33.2246C194.536 33.2246 196.626 32.8246 198.576 32.0446C200.536 31.2546 202.236 30.1546 203.666 28.7446C205.086 27.3446 206.206 25.6946 207.016 23.7946C207.816 21.8946 208.226 19.8446 208.226 17.6146C208.226 15.3846 207.816 13.3346 207.016 11.4246ZM200.336 21.1346C199.886 22.2446 199.276 23.1946 198.516 23.9846C197.746 24.7746 196.816 25.3946 195.736 25.8746C194.646 26.3446 193.466 26.5746 192.196 26.5746C190.926 26.5746 189.666 26.3446 188.586 25.8746C187.496 25.3946 186.566 24.7746 185.806 23.9846C185.046 23.1946 184.436 22.2546 183.986 21.1346C183.536 20.0246 183.306 18.8546 183.306 17.6146C183.306 16.3746 183.536 15.1446 183.986 14.0446C184.436 12.9346 185.046 11.9846 185.806 11.2046C186.566 10.4146 187.506 9.78459 188.586 9.31459C189.676 8.84459 190.876 8.60459 192.196 8.60459C193.516 8.60459 194.656 8.84459 195.736 9.31459C196.826 9.78459 197.746 10.4146 198.516 11.2046C199.276 11.9846 199.886 12.9346 200.336 14.0446C200.786 15.1546 201.006 16.3446 201.006 17.6146C201.006 18.8846 200.786 20.0246 200.336 21.1346Z" fill="white"/>
<path d="M42.585 34.5948H34.635C31.865 34.5948 29.445 32.6648 28.765 29.8948L21.625 0.924805H29.495C32.255 0.924805 34.675 2.85481 35.355 5.60481L42.585 34.5948Z" fill="white"/>
<path d="M0.554688 34.5947H14.2247C16.4347 34.5947 18.4647 33.3647 19.5247 31.3747L26.0947 19.1147H12.5047C10.3047 19.1147 8.28469 20.3347 7.21469 22.3047L0.554688 34.5947Z" fill="white"/>
<path d="M0.664062 16.4148H9.74406C11.954 16.4148 13.984 15.1848 15.044 13.1948L21.624 0.924805H12.614C10.424 0.924805 8.39406 2.14481 7.32406 4.11481L0.664062 16.4148Z" fill="white"/>
</g>
</g>
<defs>
<clipPath id="clip0_344_28">
<rect width="209" height="46" fill="white"/>
</clipPath>
</defs>
</svg>
